<svg width="44" height="46" viewBox="0 0 44 46" fill="none" xmlns="http://www.w3.org/2000/svg">
<path d="M24.386 41.6766L22 45.2632L19.614 41.6766C18.5017 40.0047 16.6267 39 14.6185 39H11C6.02944 39 2 34.9706 2 30V9C2 4.02944 6.02944 0 11 0H33C37.9706 0 42 4.02944 42 9V30C42 34.9706 37.9706 39 33 39H29.3815C27.3733 39 25.4983 40.0047 24.386 41.6766Z" fill="#1D242D"/>
<rect width="44" height="39" rx="9" fill="#1D242D"/>
<g clip-path="url(#clip0_2801_4189)">
<path d="M14.6904 11.5487C14.5903 11.1535 14.1886 10.9144 13.7934 11.0144C13.3981 11.1146 13.1589 11.5162 13.2591 11.9115L18.0825 30.9429C18.1672 31.2773 18.4678 31.5 18.7976 31.5C18.8577 31.5 18.9187 31.4926 18.9797 31.4772C19.3748 31.3771 19.6141 30.9754 19.5139 30.5802L14.6904 11.5487ZM30.7456 16.909C29.9595 14.0065 29.1727 11.1041 28.3864 8.20155C28.3012 7.88736 28.1518 7.55035 27.5902 7.51664C23.1695 7.19648 20.2668 11.5989 15.8461 11.2787C15.4972 11.2357 15.273 11.4173 15.3582 11.7315C16.1445 14.634 16.9247 17.5383 17.7173 20.439C17.8445 20.9046 18.1646 21.0809 18.5136 21.1239C22.9342 21.4442 25.837 17.0418 30.2578 17.362C30.6066 17.4049 30.8307 17.2233 30.7456 16.909ZM27.2765 8.61237C27.4933 9.41317 27.7105 10.2139 27.9273 11.0147C26.9974 11.0453 26.1767 11.233 25.307 11.5589C25.0902 10.7581 24.873 9.95728 24.6562 9.15653C25.5258 8.83072 26.3465 8.64293 27.2765 8.61237ZM18.1669 17.5905C17.9201 16.6807 17.6738 15.7707 17.4273 14.8608C18.4048 14.8325 19.2721 14.6206 20.1794 14.262C19.9623 13.4612 19.7454 12.6604 19.5285 11.8596C20.4154 11.4632 21.2519 10.9886 22.0897 10.4984C22.3065 11.2991 22.5237 12.0999 22.7406 12.9007C21.9028 13.3909 21.0662 13.8657 20.1794 14.262C20.4259 15.1719 20.6724 16.0819 20.9189 16.9917C20.0116 17.3503 19.1443 17.5621 18.1669 17.5905ZM21.5794 19.4293C21.3592 18.6168 21.1391 17.8042 20.9189 16.9916C21.7996 16.5982 22.6302 16.1276 23.462 15.6409L24.1224 18.0786C23.2907 18.5653 22.46 19.0358 21.5794 19.4293ZM23.48 15.6304C23.2336 14.7205 22.9871 13.8106 22.7406 12.9006C23.5783 12.4116 24.4154 11.9436 25.307 11.5589C25.5536 12.4688 25.8001 13.3787 26.0465 14.2886C25.1552 14.6733 24.3177 15.1413 23.48 15.6304ZM26.7224 16.7201L26.0618 14.2824C26.9264 13.96 27.743 13.7746 28.6668 13.7445L29.3274 16.1821C28.4035 16.2123 27.5869 16.3976 26.7224 16.7201Z" fill="white"/>
</g>
<defs>
<clipPath id="clip0_2801_4189">
<rect width="24" height="24" fill="white" transform="translate(10 7.5)"/>
</clipPath>
</defs>
</svg>
