<svg width="55" height="56" viewBox="0 0 55 56" fill="none" xmlns="http://www.w3.org/2000/svg">
<rect x="1.5" y="2.0166" width="52" height="52" rx="26" fill="#B31E21"/>
<rect x="1.5" y="2.0166" width="52" height="52" rx="26" stroke="#980E13" stroke-width="3"/>
<g clip-path="url(#clip0_1266_6937)">
<path d="M18.7075 33.3655C20.8865 33.3388 22.6313 31.551 22.6047 29.3723C22.5781 27.1936 20.7901 25.449 18.6111 25.4756C16.432 25.5022 14.6872 27.29 14.7138 29.4687C14.7404 31.6475 16.5284 33.3921 18.7075 33.3655Z" fill="white"/>
<path d="M36.713 33.3667C38.892 33.3401 40.6369 31.5523 40.6103 29.3735C40.5837 27.1948 38.7956 25.4502 36.6166 25.4768C34.4376 25.5034 32.6927 27.2912 32.7193 29.47C32.746 31.6487 34.534 33.3933 36.713 33.3667Z" fill="white"/>
<path d="M28.7068 14.1594C28.9406 14.3913 29.2558 14.5226 29.5851 14.5252L31.7252 22.2306C32.1113 23.6198 31.7657 25.1231 30.7744 26.1705C30.7744 26.1705 29.5009 27.5426 27.5944 27.5448C26.9929 27.5405 26.4175 27.2986 25.9938 26.8716C25.5701 26.4447 25.3324 25.8675 25.3327 25.266C25.3326 24.4335 25.4256 23.6035 25.61 22.7916C25.8479 21.86 26.0031 21.556 26.2884 20.9715C27.2195 20.8441 27.5789 19.4741 26.8905 18.3584C26.1684 17.1852 24.5856 17.0508 22.6775 17.7185C20.7694 18.3862 18.9867 18.0262 16.5229 17.6049C14.0458 17.1815 13.6581 20.9822 15.4473 20.9822H16.5288C15.2501 21.7435 14.2114 22.8492 13.5312 24.1728C13.4533 24.3227 13.4057 24.4865 13.3912 24.6549C13.3766 24.8232 13.3954 24.9927 13.4464 25.1538C13.4974 25.3148 13.5797 25.4642 13.6885 25.5935C13.7973 25.7228 13.9305 25.8293 14.0805 25.907C14.2236 25.979 14.3857 26.0046 14.544 25.9802C14.7024 25.9558 14.8492 25.8827 14.9641 25.7711C15.5592 25.166 16.2945 24.7174 17.1047 24.465C17.6097 24.314 18.1332 24.2339 18.6603 24.2272C20.0372 24.2288 21.3573 24.7765 22.3309 25.7501C23.3044 26.7238 23.852 28.0439 23.8534 29.4208C23.8534 29.5275 23.8502 29.635 23.8438 29.7435C23.8415 29.7799 23.8466 29.8164 23.859 29.8508C23.8713 29.8851 23.8906 29.9166 23.9156 29.9432C23.9406 29.9698 23.9708 29.9909 24.0043 30.0054C24.0378 30.0198 24.074 30.0273 24.1105 30.0272H30.1365C30.4789 30.0175 30.8064 29.885 31.0591 29.6538C31.3118 29.4226 31.4729 29.1083 31.513 28.7681C31.6381 27.7819 32.0436 26.8523 32.6813 26.0897C33.3189 25.3271 34.162 24.7634 35.1105 24.4656C35.6155 24.3145 36.139 24.2345 36.6661 24.2277C37.8655 24.2267 39.028 24.6428 39.9543 25.4047C40.3319 25.7145 40.8678 25.2788 40.6358 24.849L40.6294 24.8378C39.859 23.4714 38.6888 22.3734 37.2761 21.6914C37.074 21.5933 36.8692 21.5053 36.6634 21.4248C36.5941 17.8582 32.4542 14.5268 32.4542 14.5268C33.5661 14.5919 33.605 13.4848 33.605 13.4848C33.6733 12.1425 32.7646 11.0669 31.5108 10.9933C31.195 10.9769 30.8819 11.0591 30.6149 11.2284L29.8896 11.6839C29.6468 11.8403 29.3906 11.9746 29.1238 12.0854C28.9403 12.1597 28.7767 12.2759 28.6462 12.4249C28.5157 12.5738 28.4219 12.7512 28.3724 12.9429C28.3724 12.9429 28.0381 13.0421 27.9154 13.1563C27.8287 13.2304 27.7652 13.328 27.7327 13.4374C27.7002 13.5468 27.7 13.6632 27.7322 13.7727C27.7644 13.8822 27.8276 13.98 27.9141 14.0544C28.0007 14.1288 28.1069 14.1765 28.2199 14.1919C28.2199 14.1919 28.3906 14.2207 28.7068 14.1594Z" fill="white"/>
<path d="M20.6455 44.9064V38.3609H23.1512C23.6242 38.3609 24.0173 38.4355 24.3305 38.5846C24.6459 38.7317 24.8813 38.933 25.0369 39.1887C25.1945 39.4444 25.2734 39.7341 25.2734 40.058C25.2734 40.3243 25.2222 40.5523 25.12 40.742C25.0177 40.9295 24.8803 41.0818 24.7077 41.199C24.5351 41.3162 24.3423 41.4003 24.1292 41.4515V41.5154C24.3614 41.5282 24.5841 41.5996 24.7972 41.7295C25.0124 41.8574 25.1881 42.0385 25.3245 42.2728C25.4609 42.5072 25.5291 42.7906 25.5291 43.123C25.5291 43.4618 25.447 43.7665 25.283 44.0371C25.1189 44.3055 24.8717 44.5175 24.5415 44.6731C24.2112 44.8286 23.7957 44.9064 23.295 44.9064H20.6455ZM21.8313 43.9156H23.1065C23.5369 43.9156 23.8469 43.8336 24.0365 43.6695C24.2283 43.5033 24.3242 43.2902 24.3242 43.0303C24.3242 42.8364 24.2762 42.6617 24.1803 42.5062C24.0845 42.3485 23.9481 42.2249 23.7712 42.1354C23.5944 42.0438 23.3835 41.998 23.1384 41.998H21.8313V43.9156ZM21.8313 41.1447H23.0042C23.2087 41.1447 23.393 41.1074 23.5571 41.0328C23.7212 40.9561 23.8501 40.8485 23.9438 40.71C24.0397 40.5694 24.0877 40.4032 24.0877 40.2114C24.0877 39.9579 23.9982 39.7491 23.8192 39.585C23.6423 39.4209 23.3792 39.3389 23.0298 39.3389H21.8313V41.1447ZM27.4365 41.5953H28.8843C29.5107 41.5953 29.9954 41.7476 30.3385 42.0523C30.6815 42.357 30.8541 42.7565 30.8562 43.2508C30.8541 43.5726 30.7752 43.8581 30.6197 44.1074C30.4663 44.3567 30.2426 44.5527 29.9485 44.6954C29.6566 44.8361 29.3019 44.9064 28.8843 44.9064H26.6534V39.9973H27.7689V43.9572H28.8843C29.1357 43.9572 29.3424 43.8932 29.5043 43.7654C29.6662 43.6354 29.7472 43.4692 29.7472 43.2668C29.7472 43.0537 29.6662 42.8801 29.5043 42.7459C29.3424 42.6116 29.1357 42.5445 28.8843 42.5445H27.4365V41.5953ZM31.4666 44.9064V39.9973H32.6236V44.9064H31.4666Z" fill="white"/>
</g>
<defs>
<clipPath id="clip0_1266_6937">
<rect width="35.7119" height="35.7119" fill="white" transform="translate(9.64404 10.1606)"/>
</clipPath>
</defs>
</svg>
